Normalized EMG Linear Envelopes
nRows=279
nColumns=4

endheader
time	 med_gas_r	  soleus_r	 tib_ant_r	
3.92515	  0.108488	  0.129601	  0.033199	
3.95842	  0.109977	  0.120190	  0.034140	
3.99168	  0.111875	  0.112650	  0.035005	
4.02494	  0.114022	  0.108244	  0.035753	
4.05821	  0.115893	  0.107519	  0.036379	
4.09147	  0.117086	  0.110198	  0.036883	
4.12474	  0.117646	  0.115370	  0.037246	
4.158	  0.117887	  0.121880	  0.037441	
4.19126	  0.117964	  0.128752	  0.037473	
4.22453	  0.117751	  0.135553	  0.037408	
4.25779	  0.117090	  0.142504	  0.037339	
4.29106	  0.116054	  0.150100	  0.037342	
4.32432	  0.114927	  0.158286	  0.037449	
4.35758	  0.113993	  0.165790	  0.037660	
4.39085	  0.113399	  0.170343	  0.037962	
4.42411	  0.113127	  0.169925	  0.038321	
4.45738	  0.112990	  0.164118	  0.038669	
4.49064	  0.112660	  0.154459	  0.038912	
4.5239	  0.111848	  0.143532	  0.038950	
4.55717	  0.110570	  0.133631	  0.038741	
4.59043	  0.109203	  0.125970	  0.038322	
4.6237	  0.108198	  0.120729	  0.037803	
4.65696	  0.107704	  0.117521	  0.037306	
4.69022	  0.107540	  0.115800	  0.036910	
4.72349	  0.107542	  0.115038	  0.036636	
4.75675	  0.107806	  0.114743	  0.036472	
4.79002	  0.108505	  0.114459	  0.036397	
4.82328	  0.109481	  0.113827	  0.036389	
4.85654	  0.110180	  0.112668	  0.036412	
4.88981	  0.110115	  0.111060	  0.036403	
4.92307	  0.109392	  0.109354	  0.036288	
4.95634	  0.108704	  0.108074	  0.036020	
4.9896	  0.108755	  0.107709	  0.035636	
5.02286	  0.109661	  0.108465	  0.035258	
5.05613	  0.110924	  0.110160	  0.035042	
5.08939	  0.111979	  0.112334	  0.035095	
5.12266	  0.112721	  0.114501	  0.035433	
5.15592	  0.113498	  0.116336	  0.035989	
5.18918	  0.114619	  0.117679	  0.036657	
5.22245	  0.115934	  0.118418	  0.037350	
5.25571	  0.116930	  0.118430	  0.038016	
5.28898	  0.117193	  0.117639	  0.038628	
5.32224	  0.116759	  0.116153	  0.039136	
5.3555	  0.116067	  0.114290	  0.039448	
5.38877	  0.115676	  0.112462	  0.039458	
5.42203	  0.115998	  0.110985	  0.039110	
5.4553	  0.117176	  0.109967	  0.038455	
5.48856	  0.119095	  0.109325	  0.037647	
5.52182	  0.121525	  0.108891	  0.036896	
5.55509	  0.124320	  0.108504	  0.036381	
5.58835	  0.127478	  0.108057	  0.036161	
5.62162	  0.130970	  0.107524	  0.036159	
5.65488	  0.134507	  0.106958	  0.036234	
5.68814	  0.137495	  0.106470	  0.036312	
5.72141	  0.139277	  0.106178	  0.036458	
5.75467	  0.139479	  0.106152	  0.036875	
5.78794	  0.138233	  0.106365	  0.037855	
5.8212	  0.136145	  0.106664	  0.039734	
5.85446	  0.134037	  0.106817	  0.042816	
5.88773	  0.132636	  0.106659	  0.047200	
5.92099	  0.132380	  0.106248	  0.052571	
5.95426	  0.133456	  0.105897	  0.058158	
5.98752	  0.136112	  0.106019	  0.063053	
6.02078	  0.141149	  0.106897	  0.066714	
6.05405	  0.150246	  0.108536	  0.069287	
6.08731	  0.165716	  0.110710	  0.071482	
6.12058	  0.189653	  0.113102	  0.074232	
6.15384	  0.222908	  0.115429	  0.078531	
6.1871	  0.264400	  0.117455	  0.085540	
6.22037	  0.310796	  0.118949	  0.096598	
6.25363	  0.356404	  0.119688	  0.112846	
6.2869	  0.393560	  0.119546	  0.134642	
6.32016	  0.414348	  0.118636	  0.161245	
6.35342	  0.413831	  0.117349	  0.191045	
6.38669	  0.393205	  0.116254	  0.222092	
6.41995	  0.360331	  0.115887	  0.252509	
6.45322	  0.326768	  0.116582	  0.280653	
6.48648	  0.303246	  0.118401	  0.305247	
6.51974	  0.296466	  0.121198	  0.325617	
6.55301	  0.308246	  0.124735	  0.341853	
6.58627	  0.335829	  0.128779	  0.354626	
6.61954	  0.372243	  0.133111	  0.364778	
6.6528	  0.407454	  0.137470	  0.373006	
6.68606	  0.431759	  0.141512	  0.379820	
6.71933	  0.440689	  0.144829	  0.385685	
6.75259	  0.437890	  0.147061	  0.391215	
6.78586	  0.432909	  0.148062	  0.397294	
6.81912	  0.434745	  0.148018	  0.404957	
6.85238	  0.445800	  0.147388	  0.414848	
6.88565	  0.460819	  0.146682	  0.426478	
6.91891	  0.471572	  0.146202	  0.437933	
6.95218	  0.473561	  0.145947	  0.446641	
6.98544	  0.469424	  0.145712	  0.451030	
7.0187	  0.466313	  0.145298	  0.451943	
7.05197	  0.469464	  0.144726	  0.452432	
7.08523	  0.477266	  0.144355	  0.455683	
7.1185	  0.482010	  0.144798	  0.462558	
7.15176	  0.475928	  0.146634	  0.470856	
7.18502	  0.457816	  0.150088	  0.476984	
7.21829	  0.434940	  0.154835	  0.478528	
7.25155	  0.418699	  0.160044	  0.475608	
7.28482	  0.417398	  0.164627	  0.470288	
7.31808	  0.431320	  0.167612	  0.465109	
7.35134	  0.453189	  0.168482	  0.462034	
7.38461	  0.473396	  0.167266	  0.462147	
7.41787	  0.486424	  0.164350	  0.465795	
7.45114	  0.493891	  0.160199	  0.472910	
7.4844	  0.501756	  0.155206	  0.483435	
7.51766	  0.513888	  0.149742	  0.497526	
7.55093	  0.527804	  0.144253	  0.515234	
7.58419	  0.536707	  0.139283	  0.535905	
7.61746	  0.535753	  0.135427	  0.557986	
7.65072	  0.526054	  0.133261	  0.579458	
7.68398	  0.512496	  0.133269	  0.598433	
7.71725	  0.498315	  0.135695	  0.613321	
7.75051	  0.482790	  0.140377	  0.622651	
7.78378	  0.464487	  0.146666	  0.625026	
7.81704	  0.445950	  0.153578	  0.619539	
7.8503	  0.434048	  0.160126	  0.606423	
7.88357	  0.434931	  0.165640	  0.587480	
7.91683	  0.448240	  0.169867	  0.565925	
7.9501	  0.466084	  0.172813	  0.545661	
7.98336	  0.478075	  0.174530	  0.530221	
8.01662	  0.478573	  0.175114	  0.521783	
8.04989	  0.470476	  0.174909	  0.520678	
8.08315	  0.462697	  0.174601	  0.525645	
8.11642	  0.463491	  0.174905	  0.534530	
8.14968	  0.475058	  0.175980	  0.544833	
8.18294	  0.493654	  0.177101	  0.553932	
8.21621	  0.514461	  0.176989	  0.559482	
8.24947	  0.536041	  0.174616	  0.560341	
8.28274	  0.559848	  0.169857	  0.557332	
8.316	  0.585915	  0.163556	  0.552706	
8.34926	  0.610285	  0.157044	  0.548237	
8.38253	  0.627548	  0.151505	  0.543548	
8.41579	  0.635505	  0.147557	  0.536406	
8.44906	  0.636400	  0.145186	  0.524972	
8.48232	  0.633579	  0.143999	  0.509990	
8.51558	  0.628060	  0.143598	  0.494931	
8.54885	  0.619069	  0.143810	  0.483860	
8.58211	  0.606927	  0.144642	  0.478716	
8.61538	  0.593623	  0.146026	  0.478120	
8.64864	  0.580136	  0.147631	  0.478592	
8.6819	  0.564803	  0.148944	  0.477179	
8.71517	  0.546070	  0.149552	  0.473463	
8.74843	  0.526671	  0.149373	  0.469531	
8.7817	  0.513325	  0.148634	  0.468182	
8.81496	  0.511223	  0.147650	  0.470898	
8.84822	  0.519446	  0.146666	  0.477005	
8.88149	  0.532798	  0.145873	  0.484329	
8.91475	  0.547688	  0.145470	  0.490563	
8.94802	  0.564718	  0.145587	  0.494192	
8.98128	  0.585021	  0.146168	  0.494493	
9.01454	  0.605523	  0.146999	  0.491058	
9.04781	  0.619761	  0.147923	  0.483701	
9.08107	  0.623767	  0.149003	  0.473024	
9.11434	  0.619993	  0.150436	  0.460986	
9.1476	  0.614523	  0.152302	  0.450645	
9.18086	  0.610923	  0.154388	  0.445004	
9.21413	  0.607928	  0.156258	  0.445717	
9.24739	  0.603124	  0.157474	  0.452460	
9.28066	  0.597361	  0.157792	  0.463224	
9.31392	  0.594270	  0.157249	  0.475205	
9.34718	  0.596071	  0.156151	  0.485811	
9.38045	  0.601519	  0.154977	  0.493349	
9.41371	  0.608216	  0.154200	  0.497227	
9.44698	  0.615231	  0.154058	  0.497779	
9.48024	  0.622274	  0.154394	  0.495978	
9.5135	  0.627581	  0.154716	  0.493098	
9.54677	  0.628897	  0.154496	  0.490159	
9.58003	  0.626852	  0.153553	  0.487225	
9.6133	  0.625634	  0.152203	  0.483050	
9.64656	  0.629079	  0.151040	  0.475534	
9.67982	  0.636724	  0.150519	  0.462784	
9.71309	  0.644544	  0.150723	  0.444134	
9.74635	  0.648940	  0.151462	  0.420592	
9.77962	  0.648789	  0.152541	  0.394540	
9.81288	  0.643883	  0.153822	  0.368808	
9.84614	  0.633307	  0.155079	  0.345618	
9.87941	  0.616862	  0.155907	  0.326010	
9.91267	  0.597473	  0.155927	  0.310027	
9.94594	  0.580337	  0.155087	  0.297315	
9.9792	  0.568480	  0.153714	  0.287608	
10.0125	  0.559486	  0.152224	  0.280829	
10.0457	  0.547693	  0.150820	  0.276835	
10.079	  0.530268	  0.149453	  0.274912	
10.1123	  0.510976	  0.148029	  0.273309	
10.1455	  0.497470	  0.146548	  0.269367	
10.1788	  0.494493	  0.144999	  0.260628	
10.212	  0.499539	  0.143167	  0.246426	
10.2453	  0.505067	  0.140670	  0.228651	
10.2786	  0.505154	  0.137296	  0.210813	
10.3118	  0.500469	  0.133367	  0.195998	
10.3451	  0.497217	  0.129735	  0.185332	
10.3784	  0.501106	  0.127347	  0.178003	
10.4116	  0.511373	  0.126708	  0.172428	
10.4449	  0.519751	  0.127646	  0.167306	
10.4782	  0.515346	  0.129529	  0.161836	
10.5114	  0.491823	  0.131694	  0.155479	
10.5447	  0.451357	  0.133753	  0.147945	
10.578	  0.402609	  0.135643	  0.139484	
10.6112	  0.355084	  0.137513	  0.130991	
10.6445	  0.314801	  0.139556	  0.123619	
10.6777	  0.283730	  0.141838	  0.118157	
10.711	  0.261533	  0.144188	  0.114709	
10.7443	  0.247018	  0.146207	  0.112845	
10.7775	  0.238599	  0.147408	  0.111959	
10.8108	  0.234519	  0.147366	  0.111456	
10.8441	  0.233170	  0.145796	  0.110723	
10.8773	  0.233101	  0.142608	  0.109161	
10.9106	  0.232786	  0.137986	  0.106476	
10.9439	  0.230901	  0.132469	  0.102997	
10.9771	  0.227124	  0.126858	  0.099624	
11.0104	  0.222421	  0.121975	  0.097331	
11.0436	  0.218187	  0.118394	  0.096597	
11.0769	  0.215141	  0.116331	  0.097212	
11.1102	  0.213229	  0.115709	  0.098502	
11.1434	  0.212361	  0.116273	  0.099674	
11.1767	  0.212640	  0.117701	  0.099982	
11.21	  0.213692	  0.119712	  0.098759	
11.2432	  0.214289	  0.122143	  0.095523	
11.2765	  0.213309	  0.124930	  0.090240	
11.3098	  0.211156	  0.127942	  0.083527	
11.343	  0.209735	  0.130816	  0.076528	
11.3763	  0.210568	  0.132966	  0.070427	
11.4096	  0.212878	  0.133843	  0.065883	
11.4428	  0.213781	  0.133207	  0.062787	
11.4761	  0.210643	  0.131218	  0.060512	
11.5093	  0.203436	  0.128288	  0.058433	
11.5426	  0.194911	  0.124895	  0.056305	
11.5759	  0.188482	  0.121518	  0.054213	
11.6091	  0.185731	  0.118694	  0.052228	
11.6424	  0.185524	  0.117032	  0.050163	
11.6757	  0.185192	  0.117054	  0.047689	
11.7089	  0.182601	  0.118877	  0.044672	
11.7422	  0.177554	  0.121996	  0.041379	
11.7755	  0.171799	  0.125379	  0.038365	
11.8087	  0.167928	  0.127908	  0.036178	
11.842	  0.167844	  0.128859	  0.035155	
11.8752	  0.171558	  0.128119	  0.035413	
11.9085	  0.177048	  0.126090	  0.036915	
11.9418	  0.181544	  0.123438	  0.039455	
11.975	  0.183530	  0.120863	  0.042565	
12.0083	  0.183911	  0.118896	  0.045499	
12.0416	  0.185233	  0.117727	  0.047455	
12.0748	  0.189562	  0.117156	  0.047957	
12.1081	  0.196927	  0.116749	  0.047114	
12.1414	  0.205663	  0.116149	  0.045551	
12.1746	  0.214018	  0.115327	  0.044044	
12.2079	  0.221194	  0.114604	  0.043153	
12.2412	  0.226947	  0.114389	  0.043034	
12.2744	  0.230688	  0.114845	  0.043454	
12.3077	  0.231508	  0.115693	  0.043933	
12.3409	  0.229156	  0.116358	  0.043968	
12.3742	  0.224614	  0.116359	  0.043273	
12.4075	  0.219335	  0.115667	  0.041918	
12.4407	  0.213875	  0.114741	  0.040241	
12.474	  0.207459	  0.114217	  0.038625	
12.5073	  0.199098	  0.114484	  0.037298	
12.5405	  0.189240	  0.115473	  0.036311	
12.5738	  0.180393	  0.116790	  0.035617	
12.6071	  0.176018	  0.118013	  0.035161	
12.6403	  0.178438	  0.118902	  0.034901	
12.6736	  0.187200	  0.119393	  0.034803	
12.7068	  0.199091	  0.119481	  0.034840	
12.7401	  0.209917	  0.119188	  0.034990	
12.7734	  0.216938	  0.118619	  0.035225	
12.8066	  0.220180	  0.118021	  0.035480	
12.8399	  0.221617	  0.117745	  0.035645	
12.8732	  0.222971	  0.118131	  0.035612	
12.9064	  0.224215	  0.119379	  0.035343	
12.9397	  0.224165	  0.121455	  0.034930	
12.973	  0.222500	  0.124055	  0.034576	
13.0062	  0.221118	  0.126665	  0.034519	
13.0395	  0.223390	  0.128696	  0.034923	
13.0728	  0.231969	  0.129673	  0.035806	
13.106	  0.247162	  0.129402	  0.037055	
13.1393	  0.267164	  0.128017	  0.038498	
13.1725	  0.289546	  0.125894	  0.039994	
